<?xml version="1.0" encoding="UTF-8"?> <svg xmlns="http://www.w3.org/2000/svg" width="72" height="72" viewBox="0 0 72 72" fill="none"> <path d="M36 28.45L44 36.45L62.91 17.55C63.961 16.4997 64.7948 15.2525 65.3636 13.8799C65.9325 12.5072 66.2252 11.0359 66.2252 9.55C66.2252 8.06413 65.9325 6.59282 65.3636 5.22014C64.7948 3.84746 63.961 2.60033 62.91 1.55V1.55L36 28.45Z" stroke="#FF5100" stroke-width="2" stroke-linecap="round" stroke-linejoin="round"></path> <path d="M35.9991 44.45L27.9991 36.45L24.5791 39.88C21.166 38.3393 17.3206 38.0445 13.7126 39.0471C10.1046 40.0496 6.96247 42.2859 4.83349 45.3666C2.7045 48.4472 1.72352 52.177 2.06137 55.9065C2.39921 59.636 4.03448 63.1288 6.68241 65.7767C9.33034 68.4246 12.8232 70.0599 16.5526 70.3978C20.2821 70.7356 24.0119 69.7546 27.0926 67.6256C30.1732 65.4966 32.4095 62.3546 33.4121 58.7465C34.4146 55.1385 34.1198 51.2931 32.5791 47.88L35.9991 44.45Z" stroke="#FF5100" stroke-width="2" stroke-linecap="round" stroke-linejoin="round"></path> <path d="M18 62.45C22.4183 62.45 26 58.8683 26 54.45C26 50.0317 22.4183 46.45 18 46.45C13.5817 46.45 10 50.0317 10 54.45C10 58.8683 13.5817 62.45 18 62.45Z" stroke="#FF5100" stroke-width="2" stroke-linecap="round" stroke-linejoin="round"></path> <path d="M54.0006 38.45C51.7304 38.4514 49.4867 38.939 47.4206 39.88L9.09064 1.55C8.03962 2.60033 7.20587 3.84746 6.63702 5.22014C6.06818 6.59282 5.77539 8.06413 5.77539 9.55C5.77539 11.0359 6.06818 12.5072 6.63702 13.8799C7.20587 15.2525 8.03962 16.4997 9.09064 17.55L39.4206 47.88C38.0024 51.0292 37.6413 54.5527 38.3912 57.924C39.1411 61.2954 40.9618 64.3336 43.5812 66.5847C46.2006 68.8357 49.4781 70.1788 52.9239 70.4131C56.3697 70.6475 59.7988 69.7605 62.6989 67.8848C65.5989 66.0092 67.8142 63.2454 69.0136 60.0066C70.2131 56.7679 70.3323 53.2279 69.3536 49.9157C68.3748 46.6035 66.3506 43.697 63.5833 41.6304C60.8161 39.5638 57.4544 38.4481 54.0006 38.45V38.45Z" stroke="#FF5100" stroke-width="2" stroke-linecap="round" stroke-linejoin="round"></path> <path d="M54 62.45C58.4183 62.45 62 58.8683 62 54.45C62 50.0317 58.4183 46.45 54 46.45C49.5817 46.45 46 50.0317 46 54.45C46 58.8683 49.5817 62.45 54 62.45Z" stroke="#FF5100" stroke-width="2" stroke-linecap="round" stroke-linejoin="round"></path> <path d="M10 8.45L22 20.45" stroke="#FF5100" stroke-width="2" stroke-linecap="round" stroke-linejoin="round"></path> <path d="M61.94 8.10001C62.1675 9.23632 62.1094 10.4114 61.7708 11.5197C61.4322 12.628 60.8237 13.6349 60 14.45L52 22.45" stroke="#FF5100" stroke-width="2" stroke-linecap="round" stroke-linejoin="round"></path> <path d="M35.9995 39.18C37.5073 39.18 38.7295 37.9577 38.7295 36.45C38.7295 34.9423 37.5073 33.72 35.9995 33.72C34.4918 33.72 33.2695 34.9423 33.2695 36.45C33.2695 37.9577 34.4918 39.18 35.9995 39.18Z" fill="#FF5100"></path> </svg> 