<?xml version="1.0" encoding="UTF-8"?> <!-- Generator: Adobe Illustrator 24.3.0, SVG Export Plug-In . SVG Version: 6.00 Build 0) --> <svg xmlns="http://www.w3.org/2000/svg" xmlns:xlink="http://www.w3.org/1999/xlink" id="Слой_1" x="0px" y="0px" viewBox="0 0 72 72" style="enable-background:new 0 0 72 72;" xml:space="preserve"> <style type="text/css"> .st0{fill:#E9531E;} </style> <g> <path class="st0" d="M58,4.6C47.8,2.3,40,9.3,36,16.6C32,9.3,24.2,2.3,14,4.6C6.2,6.3,1,12.8,1,20.8c0,18.8,18.7,35.8,34.4,46.8 c0.2,0.1,0.4,0.2,0.6,0.2s0.4-0.1,0.6-0.2c15.7-11,34.4-28,34.4-46.8C71,12.8,65.8,6.3,58,4.6z M36,65.6C14.4,50.4,3,34.9,3,20.8 C3,13.8,7.6,8,14.4,6.5c1.1-0.2,2.2-0.4,3.3-0.4c6,0,12.9,3.4,17.4,13.1c0.2,0.4,0.5,0.6,0.9,0.6s0.7-0.2,0.9-0.6 C42.2,7.7,51.1,5.1,57.6,6.5C64.4,8,69,13.8,69,20.8C69,34.9,57.6,50.4,36,65.6z"></path> <path class="st0" d="M17.6,10.2c-0.6,0-1,0.4-1,1s0.4,1,1,1c2.3,0,8,0.9,12,9.6c0.2,0.4,0.5,0.6,0.9,0.6c0.1,0,0.3,0,0.4-0.1 c0.5-0.2,0.7-0.8,0.5-1.3C27,11.3,20.3,10.2,17.6,10.2z"></path> <path class="st0" d="M56.7,10.4c-0.5-0.1-1.1,0.2-1.2,0.8c-0.1,0.5,0.2,1.1,0.8,1.2c4,0.8,6.8,4.4,6.7,8.5 c0,9.8-7.1,20.9-20.6,32.3c-0.4,0.4-0.5,1-0.1,1.4c0.2,0.2,0.5,0.4,0.8,0.4c0.2,0,0.5-0.1,0.6-0.2C57.8,42.7,65,31.4,65,20.9 C65.2,15.8,61.7,11.4,56.7,10.4z"></path> </g> </svg> 