<?xml version="1.0" encoding="UTF-8"?> <!-- Generator: Adobe Illustrator 24.3.0, SVG Export Plug-In . SVG Version: 6.00 Build 0) --> <svg xmlns="http://www.w3.org/2000/svg" xmlns:xlink="http://www.w3.org/1999/xlink" id="Слой_1" x="0px" y="0px" viewBox="0 0 72 72" style="enable-background:new 0 0 72 72;" xml:space="preserve"> <style type="text/css"> .st0{fill:#E9531E;} </style> <g> <path class="st0" d="M64.3,37.3C64.3,37.3,64.3,37.3,64.3,37.3c-0.7-4.1-3-16.7-4.3-24.1c-0.2-1.3-1-2.5-2.1-3.3 c-1.1-0.8-2.5-1.1-3.8-0.8c-1.1,0.2-2.1,0.7-2.8,1.6l-2.7,2.9L50,4.2c0.1-0.4-0.1-0.8-0.4-1c-0.3-0.2-0.8-0.2-1.1,0l-8.1,5.4 l-3.5-7c-0.3-0.7-1.5-0.7-1.8,0l-3.5,7l-8.1-5.4c-0.3-0.2-0.8-0.2-1.1,0c-0.3,0.2-0.5,0.6-0.4,1l1.5,9.4l-2.7-2.9 c-1.9-2.1-5.1-2.2-7.2-0.3c-0.8,0.8-1.4,1.8-1.6,2.9c-0.7,3.7-1.5,8.2-2.2,12.3c-0.9,5-1.7,9.6-2.1,11.8C7,42.2,7.4,47.2,9.1,51.8 C13.2,63.1,24.3,71,36,71c11.7,0,22.8-7.9,26.9-19.2C64.6,47.2,65,42.2,64.3,37.3z M24.3,6.1l7.1,4.7C31.7,11,32,11,32.3,11 s0.5-0.3,0.6-0.5L36,4.2l3.1,6.2c0.1,0.3,0.4,0.4,0.6,0.5c0.3,0.1,0.6,0,0.8-0.1l7.1-4.7l-1.6,10.1L41.6,21H30.4l-4.5-4.8L24.3,6.1 z M61.1,51.2C57.2,61.7,46.9,69,36,69c-10.9,0-21.2-7.3-25.1-17.8c-1.5-4.3-1.9-9-1.2-13.5c0.4-2.2,1.2-6.8,2.1-11.8 c0.7-4.2,1.5-8.6,2.2-12.3c0.1-0.7,0.5-1.3,1-1.8c0.6-0.5,1.3-0.8,2.1-0.8c0.8,0,1.7,0.3,2.3,1l9.9,10.7c0.2,0.2,0.5,0.3,0.7,0.3 h12c0.3,0,0.5-0.1,0.7-0.3L52.6,12c0.5-0.5,1.1-0.8,1.7-0.9c0.8-0.1,1.6,0,2.3,0.5c0.7,0.5,1.1,1.2,1.3,2c1.4,7.5,3.6,20,4.3,24.1 C63,42.2,62.6,46.9,61.1,51.2z"></path> <path class="st0" d="M19,17.5c-0.4-0.4-1-0.4-1.4-0.1c-0.4,0.4-0.4,1-0.1,1.4l7.3,7.9c0.2,0.2,0.5,0.3,0.7,0.3 c0.2,0,0.5-0.1,0.7-0.3c0.4-0.4,0.4-1,0.1-1.4L19,17.5z"></path> <path class="st0" d="M54.7,18c-0.1-0.4-0.3-0.7-0.7-0.8c-0.4-0.1-0.8,0-1,0.3l-7.3,7.9c-0.4,0.4-0.4,1,0.1,1.4 c0.4,0.4,1,0.4,1.4-0.1l6-6.4c1.2,6.9,2.7,15.2,3.3,18.4c0.5,3.5,0.2,7.1-1,10.4c-0.2,0.5,0.1,1.1,0.6,1.3c0.1,0,0.2,0.1,0.3,0.1 c0.4,0,0.8-0.3,0.9-0.7c1.3-3.6,1.6-7.6,1-11.4C57.8,34.9,56,25.3,54.7,18z"></path> </g> </svg> 