<svg width="137" height="55" viewBox="0 0 137 55" fill="none" xmlns="http://www.w3.org/2000/svg">
<path d="M0.0267781 19.7428C0.0267781 13.9348 0.0560709 8.12418 0.00281119 2.31621C-0.00784075 1.15782 0.317042 0.771683 1.49941 0.792987C7.57101 0.896844 13.6479 0.830271 19.7169 1.01934C23.8632 1.14717 27.8949 2.04725 31.6577 3.89536C39.2845 7.63952 41.6945 14.4248 41.0101 21.8252C40.1899 30.6956 34.2408 35.6488 25.682 37.4889C22.5397 38.1653 19.2802 38.4476 16.0633 38.5648C11.19 38.7405 6.30876 38.5834 1.43017 38.634C0.306392 38.6447 -0.00784132 38.2585 0.000147639 37.172C0.0427554 31.3641 0.021452 25.5534 0.021452 19.7455C0.021452 19.7455 0.0267776 19.7455 0.0294406 19.7455L0.0267781 19.7428ZM17.2483 19.6602H17.2536C17.2536 21.2101 17.2163 22.76 17.2643 24.3071C17.3069 25.652 18.0152 26.2991 19.3574 26.3603C21.5197 26.4615 23.1095 25.359 23.6927 23.2366C24.3398 20.8879 24.3452 18.5018 23.7353 16.1451C23.1575 13.9188 21.6049 12.8696 19.2935 13.0427C17.9087 13.1466 17.2909 13.7431 17.2563 15.1412C17.2163 16.6457 17.2483 18.1503 17.2483 19.6576V19.6602Z" fill="black"/>
<path d="M97.1165 35.2121C97.9128 35.9284 98.7676 36.5116 99.3854 37.2865C101.609 40.0667 101.468 44.3328 99.0738 47.7121C96.56 51.2619 92.9064 52.9635 88.7894 53.7864C81.6766 55.2058 74.7581 53.9568 67.8876 52.1513C67.0222 51.925 67.0328 51.4083 67.2565 50.7346C68.4202 47.2434 69.5893 43.7523 70.7344 40.2558C70.9794 39.5075 71.4534 39.5261 72.0951 39.6433C75.0111 40.1732 77.9191 40.8496 80.8617 41.1239C84.5552 41.4701 88.2248 41.0147 91.724 39.6832C92.7839 39.2811 93.9449 38.8604 94.4083 37.1827C93.7239 37.3824 93.3324 37.4756 92.9543 37.6088C86.3714 39.9362 79.7352 39.9841 73.0858 37.9762C70.5879 37.22 68.3696 35.8965 66.628 33.9099C62.0956 28.7437 63.1262 21.4205 68.8783 17.4633C71.7809 15.466 75.0511 14.5766 78.4836 14.2171C83.7563 13.6605 88.9731 13.8842 93.8624 16.1797C97.9714 18.1104 100.728 21.1941 101.14 25.9183C101.425 29.1671 100.224 31.91 98.0273 34.2561C97.729 34.5756 97.4228 34.8898 97.1139 35.2121H97.1165ZM82.3396 19.133C80.7898 19.4552 79.1281 19.6949 77.5356 20.1689C76.4438 20.4938 75.834 21.4018 75.842 22.6162C75.8526 23.8757 76.4651 24.7492 77.6342 25.1407C80.7978 26.1979 83.9934 26.2059 87.1703 25.2259C88.4192 24.8397 89.2128 23.9743 89.1729 22.5735C89.1356 21.2554 88.3873 20.3633 87.1783 20.0464C85.6497 19.6469 84.0706 19.4499 82.337 19.133H82.3396Z" fill="black"/>
<path d="M104.741 29.7503C104.741 27.753 104.73 25.7558 104.741 23.7586C104.749 22.3818 104.972 22.2247 106.211 22.8105C111.134 25.1327 116.269 25.5348 121.541 24.4456C122.244 24.2992 123.403 24.5681 123.398 23.3139C123.398 23.2313 122.01 22.9996 121.31 23.1035C117.281 23.7 113.361 23.6654 109.627 21.7187C104.613 19.1037 102.291 13.815 104.253 9.15476C105.633 5.87663 108.338 3.99124 111.465 2.61714C116.258 0.508052 121.328 0.127248 126.465 0.414851C128.67 0.537348 130.859 0.960758 133.061 1.20043C134.092 1.31227 134.348 1.8715 134.337 2.81953C134.302 6.41456 134.3 10.0096 134.337 13.6046C134.35 14.8003 133.908 15.0213 132.79 14.7497C128.521 13.7165 124.258 13.839 120.026 15.0133C119.643 15.1198 119.23 15.2077 118.905 15.4208C118.657 15.5832 118.53 15.9294 118.348 16.193C118.66 16.3688 118.977 16.6937 119.286 16.6883C119.85 16.675 120.41 16.4567 120.974 16.3368C123.72 15.7483 126.489 15.2796 129.285 15.8628C135.354 17.1251 137.7 22.491 136.822 28.062C136.015 33.1775 132.396 35.963 127.919 37.7978C122.849 39.875 117.59 39.6672 112.327 38.7672C110.277 38.4156 108.277 37.7898 106.24 37.3611C105.087 37.1188 104.65 36.5569 104.719 35.3479C104.823 33.4891 104.746 31.6197 104.746 29.7556L104.741 29.7503Z" fill="black"/>
<path d="M43.8595 26.6772C43.8595 23.2153 43.8915 19.7534 43.8409 16.2916C43.8249 15.2077 44.1578 14.8136 45.2762 14.8243C50.0696 14.8695 54.863 14.8669 59.6537 14.8189C60.7269 14.8083 61.0278 15.221 61.0251 16.2303C61.0011 23.1993 61.0038 30.1657 61.0331 37.1347C61.0384 38.1973 60.7056 38.642 59.5791 38.6313C54.831 38.5861 50.0829 38.5807 45.3348 38.6313C44.1365 38.6447 43.8196 38.1893 43.8382 37.0628C43.8941 33.601 43.8595 30.1391 43.8595 26.6772Z" fill="black"/>
<path d="M51.5582 12.9495C49.7021 12.4249 47.7741 12.0707 46.0059 11.3304C43.9927 10.4863 43.0819 8.71538 43.0287 6.53173C42.9727 4.23091 43.9208 2.46002 45.9606 1.41347C49.0523 -0.17633 52.3704 -0.202961 55.6965 0.372244C56.8096 0.563979 57.9307 0.960765 58.9427 1.47206C61.0731 2.55057 61.8959 4.43596 61.7841 6.75542C61.6776 8.93907 60.623 10.4996 58.6497 11.4742C56.4235 12.574 54.0454 12.6619 51.5555 12.9495H51.5582Z" fill="black"/>
<path d="M63.9571 7.5117C63.9491 3.62108 68.9582 -0.602415 72.7742 0.0713203C74.7821 0.42816 75.6662 1.79161 74.7874 3.6557C73.4693 6.44917 71.5865 8.89378 68.9582 10.5768C66.5615 12.1107 63.9624 10.449 63.9571 7.5117Z" fill="black"/>
<path d="M93.0608 0.0287159C96.4481 0.0340418 100.397 3.29886 101.015 6.60096C101.321 8.23337 100.733 9.89507 99.5931 10.6354C98.4294 11.389 96.6505 11.365 95.4202 10.1028C93.6121 8.25201 91.8332 6.28673 90.4884 4.09243C89.0637 1.76498 90.3206 0.0233899 93.0635 0.0287159H93.0608Z" fill="black"/>
<path d="M89.8919 9.47165C89.8786 10.9762 88.8 12.0787 87.3194 12.1027C85.8867 12.124 84.5899 10.8298 84.6085 9.39177C84.6271 7.88984 85.8228 6.78471 87.394 6.814C88.8799 6.84329 89.9052 7.93511 89.8919 9.47165Z" fill="black"/>
<path d="M75.1176 9.37312C75.1416 7.79397 76.2387 6.77671 77.8658 6.82199C79.2799 6.86193 80.4596 8.09223 80.417 9.4823C80.3744 10.9123 79.1893 12.0734 77.762 12.0814C76.2467 12.092 75.0937 10.9097 75.115 9.37046L75.1176 9.37312Z" fill="black"/>
</svg>
